<svg id="visual" viewBox="0 0 960 540" width="960" height="540" xmlns="http://www.w3.org/2000/svg" xmlns:xlink="http://www.w3.org/1999/xlink" version="1.1"><rect x="0" y="0" width="960" height="540" fill="#001220"></rect><path d="M0 344L22.8 353.3C45.7 362.7 91.3 381.3 137 389.8C182.7 398.3 228.3 396.7 274 387C319.7 377.3 365.3 359.7 411.2 347.5C457 335.3 503 328.7 548.8 334C594.7 339.3 640.3 356.7 686 359C731.7 361.3 777.3 348.7 823 343.5C868.7 338.3 914.3 340.7 937.2 341.8L960 343L960 541L937.2 541C914.3 541 868.7 541 823 541C777.3 541 731.7 541 686 541C640.3 541 594.7 541 548.8 541C503 541 457 541 411.2 541C365.3 541 319.7 541 274 541C228.3 541 182.7 541 137 541C91.3 541 45.7 541 22.8 541L0 541Z" fill="#695895"></path><path d="M0 427L22.8 423.3C45.7 419.7 91.3 412.3 137 408.3C182.7 404.3 228.3 403.7 274 397C319.7 390.3 365.3 377.7 411.2 375.8C457 374 503 383 548.8 387.8C594.7 392.7 640.3 393.3 686 389.7C731.7 386 777.3 378 823 376.8C868.7 375.7 914.3 381.3 937.2 384.2L960 387L960 541L937.2 541C914.3 541 868.7 541 823 541C777.3 541 731.7 541 686 541C640.3 541 594.7 541 548.8 541C503 541 457 541 411.2 541C365.3 541 319.7 541 274 541C228.3 541 182.7 541 137 541C91.3 541 45.7 541 22.8 541L0 541Z" fill="#554484"></path><path d="M0 440L22.8 436.2C45.7 432.3 91.3 424.7 137 423.8C182.7 423 228.3 429 274 434.8C319.7 440.7 365.3 446.3 411.2 442.2C457 438 503 424 548.8 419.8C594.7 415.7 640.3 421.3 686 423.2C731.7 425 777.3 423 823 424.2C868.7 425.3 914.3 429.7 937.2 431.8L960 434L960 541L937.2 541C914.3 541 868.7 541 823 541C777.3 541 731.7 541 686 541C640.3 541 594.7 541 548.8 541C503 541 457 541 411.2 541C365.3 541 319.7 541 274 541C228.3 541 182.7 541 137 541C91.3 541 45.7 541 22.8 541L0 541Z" fill="#423173"></path><path d="M0 461L22.8 464.2C45.7 467.3 91.3 473.7 137 477.7C182.7 481.7 228.3 483.3 274 481.8C319.7 480.3 365.3 475.7 411.2 473.8C457 472 503 473 548.8 467.3C594.7 461.7 640.3 449.3 686 450.3C731.7 451.3 777.3 465.7 823 468C868.7 470.3 914.3 460.7 937.2 455.8L960 451L960 541L937.2 541C914.3 541 868.7 541 823 541C777.3 541 731.7 541 686 541C640.3 541 594.7 541 548.8 541C503 541 457 541 411.2 541C365.3 541 319.7 541 274 541C228.3 541 182.7 541 137 541C91.3 541 45.7 541 22.8 541L0 541Z" fill="#382b64"></path><path d="M0 491L22.8 490.2C45.7 489.3 91.3 487.7 137 491.7C182.7 495.7 228.3 505.3 274 510.2C319.7 515 365.3 515 411.2 507.8C457 500.7 503 486.3 548.8 481.3C594.7 476.3 640.3 480.7 686 486.3C731.7 492 777.3 499 823 499.2C868.7 499.3 914.3 492.7 937.2 489.3L960 486L960 541L937.2 541C914.3 541 868.7 541 823 541C777.3 541 731.7 541 686 541C640.3 541 594.7 541 548.8 541C503 541 457 541 411.2 541C365.3 541 319.7 541 274 541C228.3 541 182.7 541 137 541C91.3 541 45.7 541 22.8 541L0 541Z" fill="#2f2555"></path></svg>