<?xml version="1.0" encoding="UTF-8"?>
<svg id="Layer_1" data-name="Layer 1" xmlns="http://www.w3.org/2000/svg" xmlns:xlink="http://www.w3.org/1999/xlink" viewBox="0 0 512 512">
  <defs>
    <style>
      .cls-1 {
        fill: url(#linear-gradient-23);
      }

      .cls-1, .cls-2, .cls-3, .cls-4, .cls-5, .cls-6, .cls-7, .cls-8, .cls-9, .cls-10, .cls-11, .cls-12, .cls-13, .cls-14, .cls-15, .cls-16, .cls-17, .cls-18, .cls-19, .cls-20, .cls-21, .cls-22, .cls-23, .cls-24, .cls-25, .cls-26, .cls-27, .cls-28, .cls-29, .cls-30, .cls-31, .cls-32, .cls-33, .cls-34, .cls-35, .cls-36, .cls-37, .cls-38, .cls-39, .cls-40, .cls-41, .cls-42, .cls-43, .cls-44, .cls-45, .cls-46, .cls-47 {
        stroke: #231f20;
        stroke-miterlimit: 10;
      }

      .cls-1, .cls-2, .cls-4, .cls-5, .cls-6, .cls-7, .cls-8, .cls-9, .cls-10, .cls-11, .cls-12, .cls-13, .cls-14, .cls-15, .cls-16, .cls-17, .cls-18, .cls-19, .cls-20, .cls-21, .cls-22, .cls-23, .cls-24, .cls-25, .cls-26, .cls-27, .cls-28, .cls-29, .cls-30, .cls-31, .cls-32, .cls-33, .cls-34, .cls-35, .cls-36, .cls-37, .cls-38, .cls-39, .cls-40, .cls-41, .cls-42, .cls-43, .cls-44, .cls-45, .cls-46, .cls-47 {
        stroke-width: 1.92px;
      }

      .cls-2 {
        fill: url(#linear-gradient-34);
      }

      .cls-3 {
        fill: #00aeef;
        stroke-width: 1.5px;
      }

      .cls-4 {
        fill: url(#linear-gradient-21);
      }

      .cls-5 {
        fill: url(#linear-gradient-45);
      }

      .cls-6 {
        fill: url(#linear-gradient-11);
      }

      .cls-7 {
        fill: url(#linear-gradient-42);
      }

      .cls-8 {
        fill: url(#linear-gradient-33);
      }

      .cls-9 {
        fill: url(#linear-gradient-4);
      }

      .cls-10 {
        fill: url(#linear-gradient-27);
      }

      .cls-11 {
        fill: url(#linear-gradient-40);
      }

      .cls-12 {
        fill: url(#linear-gradient-37);
      }

      .cls-13 {
        fill: url(#linear-gradient-17);
      }

      .cls-14 {
        fill: url(#linear-gradient);
      }

      .cls-15 {
        fill: url(#linear-gradient-3);
      }

      .cls-16 {
        fill: url(#linear-gradient-35);
      }

      .cls-17 {
        fill: url(#linear-gradient-12);
      }

      .cls-18 {
        fill: url(#linear-gradient-8);
      }

      .cls-19 {
        fill: url(#linear-gradient-26);
      }

      .cls-20 {
        fill: url(#linear-gradient-30);
      }

      .cls-21 {
        fill: url(#linear-gradient-2);
      }

      .cls-22 {
        fill: url(#linear-gradient-18);
      }

      .cls-23 {
        fill: url(#linear-gradient-39);
      }

      .cls-24 {
        fill: url(#linear-gradient-22);
      }

      .cls-25 {
        fill: url(#linear-gradient-14);
      }

      .cls-26 {
        fill: url(#linear-gradient-10);
      }

      .cls-27 {
        fill: url(#linear-gradient-43);
      }

      .cls-28 {
        fill: url(#linear-gradient-41);
      }

      .cls-29 {
        fill: url(#linear-gradient-29);
      }

      .cls-30 {
        fill: url(#linear-gradient-15);
      }

      .cls-31 {
        fill: url(#linear-gradient-7);
      }

      .cls-32 {
        fill: url(#linear-gradient-44);
      }

      .cls-33 {
        fill: url(#linear-gradient-32);
      }

      .cls-34 {
        fill: url(#linear-gradient-19);
      }

      .cls-35 {
        fill: url(#linear-gradient-28);
      }

      .cls-36 {
        fill: url(#linear-gradient-46);
      }

      .cls-37 {
        fill: url(#linear-gradient-5);
      }

      .cls-38 {
        fill: url(#linear-gradient-20);
      }

      .cls-39 {
        fill: url(#linear-gradient-9);
      }

      .cls-40 {
        fill: url(#linear-gradient-13);
      }

      .cls-41 {
        fill: url(#linear-gradient-16);
      }

      .cls-42 {
        fill: url(#linear-gradient-25);
      }

      .cls-43 {
        fill: url(#linear-gradient-36);
      }

      .cls-44 {
        fill: url(#linear-gradient-31);
      }

      .cls-45 {
        fill: url(#linear-gradient-38);
      }

      .cls-46 {
        fill: url(#linear-gradient-24);
      }

      .cls-47 {
        fill: url(#linear-gradient-6);
      }
    </style>
    <linearGradient id="linear-gradient" x1="263.17" y1="229.13" x2="290.44" y2="229.13" gradientUnits="userSpaceOnUse">
      <stop offset="0" stop-color="#665aa7"/>
      <stop offset="1" stop-color="#5f4ea1"/>
    </linearGradient>
    <linearGradient id="linear-gradient-2" x1="263.17" y1="283.67" y2="283.67" xlink:href="#linear-gradient"/>
    <linearGradient id="linear-gradient-3" x1="290.44" y1="229.13" x2="317.71" y2="229.13" xlink:href="#linear-gradient"/>
    <linearGradient id="linear-gradient-4" y1="256.4" y2="256.4" xlink:href="#linear-gradient"/>
    <linearGradient id="linear-gradient-5" x1="317.71" y1="256.4" x2="344.98" y2="256.4" xlink:href="#linear-gradient"/>
    <linearGradient id="linear-gradient-6" x1="317.71" y1="229.13" x2="344.98" y2="229.13" xlink:href="#linear-gradient"/>
    <linearGradient id="linear-gradient-7" x1="290.44" y1="283.67" x2="317.71" y2="283.67" xlink:href="#linear-gradient"/>
    <linearGradient id="linear-gradient-8" x1="317.71" y1="283.67" x2="344.98" y2="283.67" xlink:href="#linear-gradient"/>
    <linearGradient id="linear-gradient-9" x1="359.05" x2="386.32" xlink:href="#linear-gradient"/>
    <linearGradient id="linear-gradient-10" x1="359.05" y1="283.67" x2="386.32" y2="283.67" xlink:href="#linear-gradient"/>
    <linearGradient id="linear-gradient-11" x1="386.32" y1="229.13" x2="413.59" y2="229.13" xlink:href="#linear-gradient"/>
    <linearGradient id="linear-gradient-12" x1="359.05" y1="256.4" x2="386.32" y2="256.4" xlink:href="#linear-gradient"/>
    <linearGradient id="linear-gradient-13" x1="413.59" y1="256.4" x2="440.86" y2="256.4" xlink:href="#linear-gradient"/>
    <linearGradient id="linear-gradient-14" x1="413.59" y1="229.13" x2="440.86" y2="229.13" xlink:href="#linear-gradient"/>
    <linearGradient id="linear-gradient-15" x1="386.32" y1="283.67" x2="413.59" y2="283.67" xlink:href="#linear-gradient"/>
    <linearGradient id="linear-gradient-16" x1="386.32" y1="338.23" x2="413.59" y2="338.23" xlink:href="#linear-gradient"/>
    <linearGradient id="linear-gradient-17" x1="413.59" y1="283.67" x2="440.86" y2="283.67" xlink:href="#linear-gradient"/>
    <linearGradient id="linear-gradient-18" x1="413.57" y1="310.94" x2="440.84" y2="310.94" xlink:href="#linear-gradient"/>
    <linearGradient id="linear-gradient-19" x1="413.57" y1="338.21" x2="440.84" y2="338.21" xlink:href="#linear-gradient"/>
    <linearGradient id="linear-gradient-20" x1="359.05" y1="338.21" x2="386.32" y2="338.21" xlink:href="#linear-gradient"/>
    <linearGradient id="linear-gradient-21" x1="194.34" y1="228.31" x2="221.61" y2="228.31" xlink:href="#linear-gradient"/>
    <linearGradient id="linear-gradient-22" x1="194.34" y1="201.04" x2="221.61" y2="201.04" xlink:href="#linear-gradient"/>
    <linearGradient id="linear-gradient-23" x1="194.34" y1="173.77" x2="221.61" y2="173.77" xlink:href="#linear-gradient"/>
    <linearGradient id="linear-gradient-24" x1="194.34" y1="255.58" x2="221.61" y2="255.58" xlink:href="#linear-gradient"/>
    <linearGradient id="linear-gradient-25" x1="221.61" y1="228.31" x2="248.88" y2="228.31" xlink:href="#linear-gradient"/>
    <linearGradient id="linear-gradient-26" x1="194.34" y1="282.84" x2="221.61" y2="282.84" xlink:href="#linear-gradient"/>
    <linearGradient id="linear-gradient-27" x1="221.61" y1="282.84" x2="248.88" y2="282.84" xlink:href="#linear-gradient"/>
    <linearGradient id="linear-gradient-28" x1="454.63" y1="229.13" x2="481.9" y2="229.13" xlink:href="#linear-gradient"/>
    <linearGradient id="linear-gradient-29" x1="454.63" y1="201.86" x2="481.9" y2="201.86" xlink:href="#linear-gradient"/>
    <linearGradient id="linear-gradient-30" x1="454.63" y1="174.6" x2="481.9" y2="174.6" xlink:href="#linear-gradient"/>
    <linearGradient id="linear-gradient-31" x1="454.63" y1="256.4" x2="481.9" y2="256.4" xlink:href="#linear-gradient"/>
    <linearGradient id="linear-gradient-32" x1="454.63" y1="310.94" x2="481.9" y2="310.94" xlink:href="#linear-gradient"/>
    <linearGradient id="linear-gradient-33" x1="57.37" y1="228.31" x2="84.64" y2="228.31" xlink:href="#linear-gradient"/>
    <linearGradient id="linear-gradient-34" x1="30.1" y1="255.58" x2="57.37" y2="255.58" xlink:href="#linear-gradient"/>
    <linearGradient id="linear-gradient-35" x1="84.64" y1="255.58" x2="111.91" y2="255.58" xlink:href="#linear-gradient"/>
    <linearGradient id="linear-gradient-36" x1="30.1" y1="282.84" x2="57.37" y2="282.84" xlink:href="#linear-gradient"/>
    <linearGradient id="linear-gradient-37" x1="84.64" y1="282.84" x2="111.91" y2="282.84" xlink:href="#linear-gradient"/>
    <linearGradient id="linear-gradient-38" x1="30.1" y1="228.31" x2="57.37" y2="228.31" xlink:href="#linear-gradient"/>
    <linearGradient id="linear-gradient-39" x1="84.64" y1="228.31" x2="111.91" y2="228.31" xlink:href="#linear-gradient"/>
    <linearGradient id="linear-gradient-40" x1="126" y1="228.31" x2="153.27" y2="228.31" xlink:href="#linear-gradient"/>
    <linearGradient id="linear-gradient-41" x1="126" y1="201.04" x2="153.27" y2="201.04" xlink:href="#linear-gradient"/>
    <linearGradient id="linear-gradient-42" x1="126" y1="255.58" x2="153.27" y2="255.58" xlink:href="#linear-gradient"/>
    <linearGradient id="linear-gradient-43" x1="153.27" y1="228.31" x2="180.53" y2="228.31" xlink:href="#linear-gradient"/>
    <linearGradient id="linear-gradient-44" x1="126" y1="282.84" x2="153.27" y2="282.84" xlink:href="#linear-gradient"/>
    <linearGradient id="linear-gradient-45" x1="126" y1="173.77" x2="153.27" y2="173.77" xlink:href="#linear-gradient"/>
    <linearGradient id="linear-gradient-46" x1="153.27" y1="173.77" x2="180.53" y2="173.77" xlink:href="#linear-gradient"/>
  </defs>
  <g>
    <path class="cls-3" d="M296.86,241.93c-.23,0-.46,.01-.68,.02h1.37c-.23-.01-.46-.02-.69-.02Z"/>
    <path class="cls-3" d="M307.51,253.26c.01-.22,.02-.44,.02-.66s-.01-.44-.02-.66v1.32Z"/>
    <path class="cls-3" d="M296.86,263.27c.23,0,.46-.01,.69-.02h-1.37c.22,.01,.45,.02,.68,.02Z"/>
  </g>
  <g>
    <path class="cls-3" d="M370.65,241.93c-.23,0-.46,.01-.68,.02h1.37c-.23-.01-.46-.02-.69-.02Z"/>
    <path class="cls-3" d="M359.98,252.6c0,.18,0,.37,.01,.55v-1.1c-.01,.18-.01,.37-.01,.55Z"/>
    <path class="cls-3" d="M381.3,253.29c.01-.23,.02-.46,.02-.69s-.01-.45-.02-.68v1.37Z"/>
    <path class="cls-3" d="M370.65,263.27c.23,0,.46-.01,.69-.02h-1.37c.22,.01,.45,.02,.68,.02Z"/>
  </g>
  <g>
    <g>
      <path class="cls-14" d="M290.44,215.5h0v27.27h-27.27c0-15.06,12.21-27.27,27.27-27.27Z"/>
      <path class="cls-21" d="M290.44,297.31h0v-27.27h-27.27c0,15.06,12.21,27.27,27.27,27.27Z"/>
      <rect class="cls-15" x="290.44" y="215.5" width="27.27" height="27.27"/>
      <rect class="cls-9" x="263.17" y="242.77" width="27.27" height="27.27"/>
      <rect class="cls-37" x="317.71" y="242.77" width="27.27" height="27.27"/>
      <rect class="cls-47" x="317.71" y="215.5" width="27.27" height="27.27"/>
      <rect class="cls-31" x="290.44" y="270.04" width="27.27" height="27.27"/>
      <rect class="cls-18" x="317.71" y="270.04" width="27.27" height="27.27"/>
    </g>
    <g>
      <path class="cls-39" d="M359.05,242.77h0s27.27,0,27.27,0v-27.27h0c-15.06,0-27.27,12.21-27.27,27.27Z"/>
      <path class="cls-26" d="M386.32,297.31h0v-27.27h-27.27c0,15.06,12.21,27.27,27.27,27.27Z"/>
      <rect class="cls-6" x="386.32" y="215.5" width="27.27" height="27.27"/>
      <rect class="cls-17" x="359.05" y="242.77" width="27.27" height="27.27"/>
      <rect class="cls-40" x="413.59" y="242.77" width="27.27" height="27.27"/>
      <rect class="cls-25" x="413.59" y="215.5" width="27.27" height="27.27"/>
      <rect class="cls-30" x="386.32" y="270.04" width="27.27" height="27.27"/>
      <rect class="cls-41" x="386.32" y="324.6" width="27.27" height="27.27"/>
      <rect class="cls-13" x="413.59" y="270.04" width="27.27" height="27.27"/>
      <rect class="cls-22" x="413.57" y="297.31" width="27.27" height="27.27"/>
      <path class="cls-34" d="M440.84,324.57h0s-27.27,0-27.27,0v27.27h0c15.06,0,27.27-12.21,27.27-27.27Z"/>
      <path class="cls-38" d="M386.32,351.84h0v-27.27h-27.27c0,15.06,12.21,27.27,27.27,27.27Z"/>
    </g>
    <g>
      <rect class="cls-4" x="194.34" y="214.67" width="27.27" height="27.27"/>
      <rect class="cls-24" x="194.34" y="187.4" width="27.27" height="27.27"/>
      <rect class="cls-1" x="194.34" y="160.13" width="27.27" height="27.27"/>
      <rect class="cls-46" x="194.34" y="241.94" width="27.27" height="27.27"/>
      <rect class="cls-42" x="221.61" y="214.67" width="27.27" height="27.27"/>
      <path class="cls-19" d="M194.34,269.21c0,15.06,12.21,27.27,27.27,27.27h0v-27.27h-27.27Z"/>
      <path class="cls-10" d="M221.61,296.48c15.06,0,27.27-12.21,27.27-27.27h0s-27.27,0-27.27,0v27.27h0Z"/>
    </g>
    <g>
      <rect class="cls-35" x="454.63" y="215.5" width="27.27" height="27.27"/>
      <rect class="cls-29" x="454.63" y="188.23" width="27.27" height="27.27"/>
      <rect class="cls-20" x="454.63" y="160.96" width="27.27" height="27.27"/>
      <rect class="cls-44" x="454.63" y="242.77" width="27.27" height="27.27"/>
      <rect class="cls-33" x="454.63" y="297.31" width="27.27" height="27.27"/>
    </g>
    <g>
      <rect class="cls-8" x="57.37" y="214.67" width="27.27" height="27.27"/>
      <rect class="cls-2" x="30.1" y="241.94" width="27.27" height="27.27"/>
      <rect class="cls-16" x="84.64" y="241.94" width="27.27" height="27.27"/>
      <rect class="cls-43" x="30.1" y="269.21" width="27.27" height="27.27"/>
      <rect class="cls-12" x="84.64" y="269.21" width="27.27" height="27.27"/>
      <path class="cls-45" d="M30.1,241.94h0s27.27,0,27.27,0v-27.27h0c-15.06,0-27.27,12.21-27.27,27.27Z"/>
      <path class="cls-23" d="M84.64,214.67h0v27.27h27.27c0-15.06-12.21-27.27-27.27-27.27Z"/>
    </g>
    <g>
      <rect class="cls-11" x="126" y="214.67" width="27.27" height="27.27"/>
      <rect class="cls-28" x="126" y="187.4" width="27.27" height="27.27"/>
      <rect class="cls-7" x="126" y="241.94" width="27.27" height="27.27"/>
      <rect class="cls-27" x="153.27" y="214.67" width="27.27" height="27.27"/>
      <rect class="cls-32" x="126" y="269.21" width="27.27" height="27.27"/>
      <path class="cls-5" d="M126,187.4h0s27.27,0,27.27,0v-27.27h0c-15.06,0-27.27,12.21-27.27,27.27Z"/>
      <path class="cls-36" d="M153.27,160.13h0v27.27h27.27c0-15.06-12.21-27.27-27.27-27.27Z"/>
    </g>
  </g>
</svg>