<svg id="visual" viewBox="0 0 960 540" width="960" height="540" xmlns="http://www.w3.org/2000/svg" xmlns:xlink="http://www.w3.org/1999/xlink" version="1.1"><path d="M0 82L14.5 88.3C29 94.7 58 107.3 87.2 109.2C116.3 111 145.7 102 174.8 95.7C204 89.3 233 85.7 262 83.8C291 82 320 82 349 82.8C378 83.7 407 85.3 436.2 96.2C465.3 107 494.7 127 523.8 128.8C553 130.7 582 114.3 611 99C640 83.7 669 69.3 698 66.7C727 64 756 73 785.2 78.3C814.3 83.7 843.7 85.3 872.8 90.7C902 96 931 105 945.5 109.5L960 114L960 0L945.5 0C931 0 902 0 872.8 0C843.7 0 814.3 0 785.2 0C756 0 727 0 698 0C669 0 640 0 611 0C582 0 553 0 523.8 0C494.7 0 465.3 0 436.2 0C407 0 378 0 349 0C320 0 291 0 262 0C233 0 204 0 174.8 0C145.7 0 116.3 0 87.2 0C58 0 29 0 14.5 0L0 0Z" fill="#695895"></path><path d="M0 147L14.5 155C29 163 58 179 87.2 175.3C116.3 171.7 145.7 148.3 174.8 134.8C204 121.3 233 117.7 262 122.2C291 126.7 320 139.3 349 146.7C378 154 407 156 436.2 166C465.3 176 494.7 194 523.8 194.8C553 195.7 582 179.3 611 167.5C640 155.7 669 148.3 698 142C727 135.7 756 130.3 785.2 135.8C814.3 141.3 843.7 157.7 872.8 164C902 170.3 931 166.7 945.5 164.8L960 163L960 112L945.5 107.5C931 103 902 94 872.8 88.7C843.7 83.3 814.3 81.7 785.2 76.3C756 71 727 62 698 64.7C669 67.3 640 81.7 611 97C582 112.3 553 128.7 523.8 126.8C494.7 125 465.3 105 436.2 94.2C407 83.3 378 81.7 349 80.8C320 80 291 80 262 81.8C233 83.7 204 87.3 174.8 93.7C145.7 100 116.3 109 87.2 107.2C58 105.3 29 92.7 14.5 86.3L0 80Z" fill="#554484"></path><path d="M0 249L14.5 248.2C29 247.3 58 245.7 87.2 237.7C116.3 229.7 145.7 215.3 174.8 201C204 186.7 233 172.3 262 181.3C291 190.3 320 222.7 349 233.3C378 244 407 233 436.2 235.7C465.3 238.3 494.7 254.7 523.8 255.7C553 256.7 582 242.3 611 232.5C640 222.7 669 217.3 698 210.2C727 203 756 194 785.2 204.7C814.3 215.3 843.7 245.7 872.8 254.7C902 263.7 931 251.3 945.5 245.2L960 239L960 161L945.5 162.8C931 164.7 902 168.3 872.8 162C843.7 155.7 814.3 139.3 785.2 133.8C756 128.3 727 133.7 698 140C669 146.3 640 153.7 611 165.5C582 177.3 553 193.7 523.8 192.8C494.7 192 465.3 174 436.2 164C407 154 378 152 349 144.7C320 137.3 291 124.7 262 120.2C233 115.7 204 119.3 174.8 132.8C145.7 146.3 116.3 169.7 87.2 173.3C58 177 29 161 14.5 153L0 145Z" fill="#423173"></path><path d="M0 460L14.5 442C29 424 58 388 87.2 386.2C116.3 384.3 145.7 416.7 174.8 414.8C204 413 233 377 262 366.2C291 355.3 320 369.7 349 378.7C378 387.7 407 391.3 436.2 387.8C465.3 384.3 494.7 373.7 523.8 360.2C553 346.7 582 330.3 611 339.3C640 348.3 669 382.7 698 404.3C727 426 756 435 785.2 424.2C814.3 413.3 843.7 382.7 872.8 379C902 375.3 931 398.7 945.5 410.3L960 422L960 237L945.5 243.2C931 249.3 902 261.7 872.8 252.7C843.7 243.7 814.3 213.3 785.2 202.7C756 192 727 201 698 208.2C669 215.3 640 220.7 611 230.5C582 240.3 553 254.7 523.8 253.7C494.7 252.7 465.3 236.3 436.2 233.7C407 231 378 242 349 231.3C320 220.7 291 188.3 262 179.3C233 170.3 204 184.7 174.8 199C145.7 213.3 116.3 227.7 87.2 235.7C58 243.7 29 245.3 14.5 246.2L0 247Z" fill="#382b64"></path><path d="M0 541L14.5 541C29 541 58 541 87.2 541C116.3 541 145.7 541 174.8 541C204 541 233 541 262 541C291 541 320 541 349 541C378 541 407 541 436.2 541C465.3 541 494.7 541 523.8 541C553 541 582 541 611 541C640 541 669 541 698 541C727 541 756 541 785.2 541C814.3 541 843.7 541 872.8 541C902 541 931 541 945.5 541L960 541L960 420L945.5 408.3C931 396.7 902 373.3 872.8 377C843.7 380.7 814.3 411.3 785.2 422.2C756 433 727 424 698 402.3C669 380.7 640 346.3 611 337.3C582 328.3 553 344.7 523.8 358.2C494.7 371.7 465.3 382.3 436.2 385.8C407 389.3 378 385.7 349 376.7C320 367.7 291 353.3 262 364.2C233 375 204 411 174.8 412.8C145.7 414.7 116.3 382.3 87.2 384.2C58 386 29 422 14.5 440L0 458Z" fill="#2f2555"></path></svg>